<mxfile host="app.diagrams.net" agent="Mozilla/5.0 (Windows NT 10.0; Win64; x64) AppleWebKit/537.36 (KHTML, like Gecko) Chrome/141.0.0.0 Safari/537.36 Edg/141.0.0.0" version="28.2.7">
  <diagram name="第 1 页" id="JnTsTW6he8jAbLoneIEE">
    <mxGraphModel dx="2609" dy="2385" grid="1" gridSize="10" guides="1" tooltips="1" connect="1" arrows="1" fold="1" page="1" pageScale="1" pageWidth="827" pageHeight="1169" math="0" shadow="0">
      <root>
        <mxCell id="0" />
        <mxCell id="1" parent="0" />
        <mxCell id="nDQXmqwVLMpLPW4qeBTz-2" value="&#xa;  &#xa;    &#xa;      &#xa;        &#xa;        &#xa;        &#xa;        &#xa;        &#xa;          &#xa;        &#xa;&#xa;        &#xa;        &#xa;          &#xa;        &#xa;&#xa;        &#xa;        &#xa;          &#xa;        &#xa;        &#xa;          &#xa;        &#xa;&#xa;        &#xa;        &#xa;          &#xa;        &#xa;        &#xa;          &#xa;        &#xa;&#xa;        &#xa;        &#xa;          &#xa;        &#xa;        &#xa;          &#xa;        &#xa;&#xa;        &#xa;        &#xa;          &#xa;        &#xa;        &#xa;          &#xa;        &#xa;&#xa;        &#xa;        &#xa;          &#xa;        &#xa;        &#xa;          &#xa;        &#xa;&#xa;        &#xa;        &#xa;          &#xa;        &#xa;        &#xa;          &#xa;        &#xa;&#xa;        &#xa;        &#xa;          &#xa;        &#xa;        &#xa;          &#xa;        &#xa;        &#xa;          &#xa;        &#xa;      &#xa;    &#xa;  &#xa;" style="text;whiteSpace=wrap;html=1;rotation=90;" vertex="1" parent="1">
          <mxGeometry width="30" height="1150" as="geometry" />
        </mxCell>
        <mxCell id="nDQXmqwVLMpLPW4qeBTz-3" value="&lt;h1 style=&quot;margin:0&quot;&gt;DNA药物发展历程与技术突破&lt;/h1&gt;&lt;div style=&quot;color: rgb(102, 102, 102);&quot;&gt;&lt;font style=&quot;font-size: 16px;&quot;&gt;从基础科学到精准医疗的演进路径&lt;/font&gt;&lt;/div&gt;" style="text;html=1;strokeColor=none;fillColor=none;align=center;verticalAlign=middle;whiteSpace=wrap;fontSize=24;fontColor=#003366;" vertex="1" parent="1">
          <mxGeometry x="470" y="-20" width="400" height="60" as="geometry" />
        </mxCell>
        <mxCell id="nDQXmqwVLMpLPW4qeBTz-4" value="&lt;b&gt;基础科学发现&lt;/b&gt;" style="rounded=0;whiteSpace=wrap;html=1;fillColor=#FFFFFF;strokeColor=#003366;strokeWidth=2;gradientColor=none;gradientDirection=north;" vertex="1" parent="1">
          <mxGeometry x="40" y="100" width="1240" height="100" as="geometry" />
        </mxCell>
        <mxCell id="nDQXmqwVLMpLPW4qeBTz-5" value="&lt;b&gt;技术平台建立&lt;/b&gt;" style="rounded=0;whiteSpace=wrap;html=1;fillColor=#0078D4;strokeColor=#003366;strokeWidth=2;gradientColor=#D4E1F5;gradientDirection=north;" vertex="1" parent="1">
          <mxGeometry x="40" y="200" width="1240" height="100" as="geometry" />
        </mxCell>
        <mxCell id="nDQXmqwVLMpLPW4qeBTz-6" value="&lt;b&gt;临床应用突破&lt;/b&gt;" style="rounded=0;whiteSpace=wrap;html=1;fillColor=#2B398F;strokeColor=#003366;strokeWidth=2;gradientColor=#FFFFFF;gradientDirection=north;" vertex="1" parent="1">
          <mxGeometry x="40" y="300" width="1240" height="100" as="geometry" />
        </mxCell>
        <mxCell id="nDQXmqwVLMpLPW4qeBTz-7" value="&lt;b&gt;奠基探索期&lt;/b&gt;&lt;br&gt;1950-1980" style="text;html=1;strokeColor=none;fillColor=none;align=center;verticalAlign=middle;whiteSpace=wrap;fontColor=#000000;fontSize=16;" vertex="1" parent="1">
          <mxGeometry x="80" y="135" width="120" height="30" as="geometry" />
        </mxCell>
        <mxCell id="nDQXmqwVLMpLPW4qeBTz-8" value="&lt;b&gt;技术工程化期&lt;/b&gt;&lt;br&gt;1980-2010" style="text;html=1;strokeColor=none;fillColor=none;align=center;verticalAlign=middle;whiteSpace=wrap;fontColor=#ffffff;fontSize=16;" vertex="1" parent="1">
          <mxGeometry x="80" y="235" width="120" height="30" as="geometry" />
        </mxCell>
        <mxCell id="nDQXmqwVLMpLPW4qeBTz-9" value="&lt;b&gt;精准医疗期&lt;/b&gt;&lt;br&gt;2010-现今" style="text;html=1;strokeColor=none;fillColor=none;align=center;verticalAlign=middle;whiteSpace=wrap;fontColor=#ffffff;fontSize=16;" vertex="1" parent="1">
          <mxGeometry x="80" y="335" width="120" height="30" as="geometry" />
        </mxCell>
        <mxCell id="nDQXmqwVLMpLPW4qeBTz-10" style="edgeStyle=orthogonalEdgeStyle;rounded=1;strokeColor=#FFD966;strokeWidth=6;dashed=1;" edge="1" parent="1" source="nDQXmqwVLMpLPW4qeBTz-11" target="nDQXmqwVLMpLPW4qeBTz-19">
          <mxGeometry relative="1" as="geometry">
            <Array as="points">
              <mxPoint x="280" y="250" />
              <mxPoint x="560" y="180" />
              <mxPoint x="840" y="220" />
              <mxPoint x="1000" y="280" />
              <mxPoint x="1160" y="320" />
            </Array>
          </mxGeometry>
        </mxCell>
        <mxCell id="nDQXmqwVLMpLPW4qeBTz-11" value="&lt;b&gt;1953&lt;/b&gt;&lt;br&gt;DNA双螺旋结构发现" style="ellipse;whiteSpace=wrap;html=1;fillColor=#ffffff;strokeColor=#005BAA;strokeWidth=3;fontSize=12;" vertex="1" parent="1">
          <mxGeometry x="220" y="125" width="110" height="55" as="geometry" />
        </mxCell>
        <mxCell id="nDQXmqwVLMpLPW4qeBTz-12" value="&lt;b&gt;1972&lt;/b&gt;&lt;br&gt;重组DNA技术诞生" style="ellipse;whiteSpace=wrap;html=1;fillColor=#ffffff;strokeColor=#005BAA;strokeWidth=3;fontSize=12;" vertex="1" parent="1">
          <mxGeometry x="380" y="122.5" width="110" height="55" as="geometry" />
        </mxCell>
        <mxCell id="nDQXmqwVLMpLPW4qeBTz-13" value="&lt;b&gt;1982&lt;/b&gt;&lt;br&gt;首个重组胰岛素上市" style="ellipse;whiteSpace=wrap;html=1;fillColor=#ffffff;strokeColor=#0080C8;strokeWidth=3;fontSize=12;" vertex="1" parent="1">
          <mxGeometry x="500" y="225" width="100" height="50" as="geometry" />
        </mxCell>
        <mxCell id="nDQXmqwVLMpLPW4qeBTz-14" value="&lt;b&gt;1990&lt;/b&gt;&lt;br&gt;首例基因治疗临床试验" style="ellipse;whiteSpace=wrap;html=1;fillColor=#ffffff;strokeColor=#0080C8;strokeWidth=3;fontSize=12;" vertex="1" parent="1">
          <mxGeometry x="710" y="220" width="110" height="60" as="geometry" />
        </mxCell>
        <mxCell id="nDQXmqwVLMpLPW4qeBTz-15" value="&lt;b&gt;1998&lt;/b&gt;&lt;br&gt;首款反义药物上市" style="ellipse;whiteSpace=wrap;html=1;fillColor=#ffffff;strokeColor=#0080C8;strokeWidth=3;fontSize=12;" vertex="1" parent="1">
          <mxGeometry x="850" y="222.5" width="110" height="55" as="geometry" />
        </mxCell>
        <mxCell id="nDQXmqwVLMpLPW4qeBTz-16" value="&lt;b&gt;2012&lt;/b&gt;&lt;br&gt;CRISPR基因编辑技术" style="ellipse;whiteSpace=wrap;html=1;fillColor=#ffffff;strokeColor=#00A0E3;strokeWidth=3;fontSize=12;" vertex="1" parent="1">
          <mxGeometry x="920" y="325" width="100" height="50" as="geometry" />
        </mxCell>
        <mxCell id="nDQXmqwVLMpLPW4qeBTz-17" value="&lt;b&gt;2020&lt;/b&gt;&lt;br&gt;mRNA疫苗全球应用" style="ellipse;whiteSpace=wrap;html=1;fillColor=#ffffff;strokeColor=#00A0E3;strokeWidth=3;fontSize=12;" vertex="1" parent="1">
          <mxGeometry x="1060" y="325" width="100" height="50" as="geometry" />
        </mxCell>
        <mxCell id="nDQXmqwVLMpLPW4qeBTz-18" value="&lt;b&gt;2023&lt;/b&gt;&lt;br&gt;首款CRISPR基因编辑疗法获批" style="ellipse;whiteSpace=wrap;html=1;fillColor=#FF6B00;strokeColor=#ffffff;strokeWidth=3;fontSize=12;fontColor=#000033;" vertex="1" parent="1">
          <mxGeometry x="1200" y="325" width="120" height="50" as="geometry" />
        </mxCell>
        <mxCell id="nDQXmqwVLMpLPW4qeBTz-19" value="&lt;b&gt;2025+&lt;/b&gt;&lt;br&gt;AI驱动个性化DNA药物" style="ellipse;whiteSpace=wrap;html=1;fillColor=#FF6B00;strokeColor=#ffffff;strokeWidth=3;fontSize=12;fontColor=#000033;" vertex="1" parent="1">
          <mxGeometry x="1340" y="325" width="120" height="50" as="geometry" />
        </mxCell>
        <mxCell id="nDQXmqwVLMpLPW4qeBTz-20" value="• 基因克隆技术&lt;br&gt;• 测序技术突破" style="rounded=1;whiteSpace=wrap;html=1;fillColor=#e6f2ff;strokeColor=#005BAA;strokeWidth=1;fontSize=10;" vertex="1" parent="1">
          <mxGeometry x="300" y="180" width="80" height="40" as="geometry" />
        </mxCell>
        <mxCell id="nDQXmqwVLMpLPW4qeBTz-21" value="• 病毒载体优化&lt;br&gt;• 核酸化学修饰" style="rounded=1;whiteSpace=wrap;html=1;fillColor=#e6f2ff;strokeColor=#0080C8;strokeWidth=1;fontSize=10;" vertex="1" parent="1">
          <mxGeometry x="700" y="285" width="80" height="40" as="geometry" />
        </mxCell>
        <mxCell id="nDQXmqwVLMpLPW4qeBTz-22" value="• LNP递送系统&lt;br&gt;• AI药物设计" style="rounded=1;whiteSpace=wrap;html=1;fillColor=#e6f2ff;strokeColor=#00A0E3;strokeWidth=1;fontSize=10;" vertex="1" parent="1">
          <mxGeometry x="1100" y="380" width="80" height="40" as="geometry" />
        </mxCell>
        <mxCell id="nDQXmqwVLMpLPW4qeBTz-23" value="技术成熟度与临床应用深度 →" style="text;html=1;strokeColor=none;fillColor=none;align=center;verticalAlign=middle;whiteSpace=wrap;fontSize=14;fontColor=#000000;rotation=0;fontStyle=1" vertex="1" parent="1">
          <mxGeometry x="570" y="420" width="200" height="20" as="geometry" />
        </mxCell>
        <mxCell id="nDQXmqwVLMpLPW4qeBTz-24" value="&lt;b&gt;图例说明：&lt;/b&gt;&lt;br&gt;• 蓝色泳道：发展阶段&lt;br&gt;• 橙色曲线：技术成熟轨迹&lt;br&gt;• 圆形节点：关键里程碑&lt;br&gt;• 浅蓝标签：核心技术突破" style="text;html=1;strokeColor=none;fillColor=#f5f5f5;align=left;verticalAlign=top;whiteSpace=wrap;fontSize=12;fontColor=#333333;rounded=1;" vertex="1" parent="1">
          <mxGeometry x="40" y="440" width="200" height="80" as="geometry" />
        </mxCell>
      </root>
    </mxGraphModel>
  </diagram>
</mxfile>
